<svg xmlns="http://www.w3.org/2000/svg" style="width: 100%; height: 100%;" viewBox="0 0 395.644 265.867" width="395.644pt" height="265.867pt" xmlns:xlink="http://www.w3.org/1999/xlink" version="1.1">
 <defs>
  <style type="text/css">
*{stroke-linecap:butt;stroke-linejoin:round;}
  </style>
 </defs>
 <g id="figure_1">
  <g id="patch_1">
   <path style="fill:none;" d="M 0 265.867 L 395.644 265.867 L 395.644 0 L 0 0 Z" />
  </g>
  <g id="axes_1">
   <g id="patch_2">
    <path style="fill:#ffffff;" d="M 50.1437 228.14 L 384.944 228.14 L 384.944 10.7 L 50.1437 10.7 Z" />
   </g>
   <g id="matplotlib.axis_1">
    <g id="xtick_1">
     <g id="line2d_1">
      <defs>
       <path id="mf90f18dde0" style="stroke:#000000;stroke-width:0.8;" d="M 0 0 L 0 3.5" />
      </defs>
      <g>
       <use style="stroke:#000000;stroke-width:0.8;" x="65.3619" y="228.14" xlink:href="#mf90f18dde0" />
      </g>
     </g>
     <g id="text_1">
      <!-- 0 -->
      <defs>
       <path id="DejaVuSans-48" d="M 31.7813 66.4063 Q 24.1719 66.4063 20.3281 58.9063 Q 16.5 51.4219 16.5 36.375 Q 16.5 21.3906 20.3281 13.8906 Q 24.1719 6.39063 31.7813 6.39063 Q 39.4531 6.39063 43.2813 13.8906 Q 47.125 21.3906 47.125 36.375 Q 47.125 51.4219 43.2813 58.9063 Q 39.4531 66.4063 31.7813 66.4063 Z M 31.7813 74.2188 Q 44.0469 74.2188 50.5156 64.5156 Q 56.9844 54.8281 56.9844 36.375 Q 56.9844 17.9688 50.5156 8.26563 Q 44.0469 -1.42188 31.7813 -1.42188 Q 19.5313 -1.42188 13.0625 8.26563 Q 6.59375 17.9688 6.59375 36.375 Q 6.59375 54.8281 13.0625 64.5156 Q 19.5313 74.2188 31.7813 74.2188 Z" />
      </defs>
      <g transform="translate(62.1807 242.738) scale(0.1, -0.1)">
       <use xlink:href="#DejaVuSans-48" />
      </g>
     </g>
    </g>
    <g id="xtick_2">
     <g id="line2d_2">
      <g>
       <use style="stroke:#000000;stroke-width:0.8;" x="116.949" y="228.14" xlink:href="#mf90f18dde0" />
      </g>
     </g>
     <g id="text_2">
      <!-- 10 -->
      <defs>
       <path id="DejaVuSans-49" d="M 12.4063 8.29688 L 28.5156 8.29688 L 28.5156 63.9219 L 10.9844 60.4063 L 10.9844 69.3906 L 28.4219 72.9063 L 38.2813 72.9063 L 38.2813 8.29688 L 54.3906 8.29688 L 54.3906 0 L 12.4063 0 Z" />
      </defs>
      <g transform="translate(110.586 242.738) scale(0.1, -0.1)">
       <use xlink:href="#DejaVuSans-49" />
       <use x="63.623" xlink:href="#DejaVuSans-48" />
      </g>
     </g>
    </g>
    <g id="xtick_3">
     <g id="line2d_3">
      <g>
       <use style="stroke:#000000;stroke-width:0.8;" x="168.536" y="228.14" xlink:href="#mf90f18dde0" />
      </g>
     </g>
     <g id="text_3">
      <!-- 20 -->
      <defs>
       <path id="DejaVuSans-50" d="M 19.1875 8.29688 L 53.6094 8.29688 L 53.6094 0 L 7.32813 0 L 7.32813 8.29688 Q 12.9375 14.1094 22.625 23.8906 Q 32.3281 33.6875 34.8125 36.5313 Q 39.5469 41.8438 41.4219 45.5313 Q 43.3125 49.2188 43.3125 52.7813 Q 43.3125 58.5938 39.2344 62.25 Q 35.1563 65.9219 28.6094 65.9219 Q 23.9688 65.9219 18.8125 64.3125 Q 13.6719 62.7031 7.8125 59.4219 L 7.8125 69.3906 Q 13.7656 71.7813 18.9375 73 Q 24.125 74.2188 28.4219 74.2188 Q 39.75 74.2188 46.4844 68.5469 Q 53.2188 62.8906 53.2188 53.4219 Q 53.2188 48.9219 51.5313 44.8906 Q 49.8594 40.875 45.4063 35.4063 Q 44.1875 33.9844 37.6406 27.2188 Q 31.1094 20.4531 19.1875 8.29688 Z" />
      </defs>
      <g transform="translate(162.174 242.738) scale(0.1, -0.1)">
       <use xlink:href="#DejaVuSans-50" />
       <use x="63.623" xlink:href="#DejaVuSans-48" />
      </g>
     </g>
    </g>
    <g id="xtick_4">
     <g id="line2d_4">
      <g>
       <use style="stroke:#000000;stroke-width:0.8;" x="220.123" y="228.14" xlink:href="#mf90f18dde0" />
      </g>
     </g>
     <g id="text_4">
      <!-- 30 -->
      <defs>
       <path id="DejaVuSans-51" d="M 40.5781 39.3125 Q 47.6563 37.7969 51.625 33 Q 55.6094 28.2188 55.6094 21.1875 Q 55.6094 10.4063 48.1875 4.48438 Q 40.7656 -1.42188 27.0938 -1.42188 Q 22.5156 -1.42188 17.6563 -0.515625 Q 12.7969 0.390625 7.625 2.20313 L 7.625 11.7188 Q 11.7188 9.32813 16.5938 8.10938 Q 21.4844 6.89063 26.8125 6.89063 Q 36.0781 6.89063 40.9375 10.5469 Q 45.7969 14.2031 45.7969 21.1875 Q 45.7969 27.6406 41.2813 31.2656 Q 36.7656 34.9063 28.7188 34.9063 L 20.2188 34.9063 L 20.2188 43.0156 L 29.1094 43.0156 Q 36.375 43.0156 40.2344 45.9219 Q 44.0938 48.8281 44.0938 54.2969 Q 44.0938 59.9063 40.1094 62.9063 Q 36.1406 65.9219 28.7188 65.9219 Q 24.6563 65.9219 20.0156 65.0313 Q 15.375 64.1563 9.8125 62.3125 L 9.8125 71.0938 Q 15.4375 72.6563 20.3438 73.4375 Q 25.25 74.2188 29.5938 74.2188 Q 40.8281 74.2188 47.3594 69.1094 Q 53.9063 64.0156 53.9063 55.3281 Q 53.9063 49.2656 50.4375 45.0938 Q 46.9688 40.9219 40.5781 39.3125 Z" />
      </defs>
      <g transform="translate(213.761 242.738) scale(0.1, -0.1)">
       <use xlink:href="#DejaVuSans-51" />
       <use x="63.623" xlink:href="#DejaVuSans-48" />
      </g>
     </g>
    </g>
    <g id="xtick_5">
     <g id="line2d_5">
      <g>
       <use style="stroke:#000000;stroke-width:0.8;" x="271.71" y="228.14" xlink:href="#mf90f18dde0" />
      </g>
     </g>
     <g id="text_5">
      <!-- 40 -->
      <defs>
       <path id="DejaVuSans-52" d="M 37.7969 64.3125 L 12.8906 25.3906 L 37.7969 25.3906 Z M 35.2031 72.9063 L 47.6094 72.9063 L 47.6094 25.3906 L 58.0156 25.3906 L 58.0156 17.1875 L 47.6094 17.1875 L 47.6094 0 L 37.7969 0 L 37.7969 17.1875 L 4.89063 17.1875 L 4.89063 26.7031 Z" />
      </defs>
      <g transform="translate(265.348 242.738) scale(0.1, -0.1)">
       <use xlink:href="#DejaVuSans-52" />
       <use x="63.623" xlink:href="#DejaVuSans-48" />
      </g>
     </g>
    </g>
    <g id="xtick_6">
     <g id="line2d_6">
      <g>
       <use style="stroke:#000000;stroke-width:0.8;" x="323.297" y="228.14" xlink:href="#mf90f18dde0" />
      </g>
     </g>
     <g id="text_6">
      <!-- 50 -->
      <defs>
       <path id="DejaVuSans-53" d="M 10.7969 72.9063 L 49.5156 72.9063 L 49.5156 64.5938 L 19.8281 64.5938 L 19.8281 46.7344 Q 21.9688 47.4688 24.1094 47.8281 Q 26.2656 48.1875 28.4219 48.1875 Q 40.625 48.1875 47.75 41.5 Q 54.8906 34.8125 54.8906 23.3906 Q 54.8906 11.625 47.5625 5.09375 Q 40.2344 -1.42188 26.9063 -1.42188 Q 22.3125 -1.42188 17.5469 -0.640625 Q 12.7969 0.140625 7.71875 1.70313 L 7.71875 11.625 Q 12.1094 9.23438 16.7969 8.0625 Q 21.4844 6.89063 26.7031 6.89063 Q 35.1563 6.89063 40.0781 11.3281 Q 45.0156 15.7656 45.0156 23.3906 Q 45.0156 31 40.0781 35.4375 Q 35.1563 39.8906 26.7031 39.8906 Q 22.75 39.8906 18.8125 39.0156 Q 14.8906 38.1406 10.7969 36.2813 Z" />
      </defs>
      <g transform="translate(316.935 242.738) scale(0.1, -0.1)">
       <use xlink:href="#DejaVuSans-53" />
       <use x="63.623" xlink:href="#DejaVuSans-48" />
      </g>
     </g>
    </g>
    <g id="xtick_7">
     <g id="line2d_7">
      <g>
       <use style="stroke:#000000;stroke-width:0.8;" x="374.884" y="228.14" xlink:href="#mf90f18dde0" />
      </g>
     </g>
     <g id="text_7">
      <!-- 60 -->
      <defs>
       <path id="DejaVuSans-54" d="M 33.0156 40.375 Q 26.375 40.375 22.4844 35.8281 Q 18.6094 31.2969 18.6094 23.3906 Q 18.6094 15.5313 22.4844 10.9531 Q 26.375 6.39063 33.0156 6.39063 Q 39.6563 6.39063 43.5313 10.9531 Q 47.4063 15.5313 47.4063 23.3906 Q 47.4063 31.2969 43.5313 35.8281 Q 39.6563 40.375 33.0156 40.375 Z M 52.5938 71.2969 L 52.5938 62.3125 Q 48.875 64.0625 45.0938 64.9844 Q 41.3125 65.9219 37.5938 65.9219 Q 27.8281 65.9219 22.6719 59.3281 Q 17.5313 52.7344 16.7969 39.4063 Q 19.6719 43.6563 24.0156 45.9219 Q 28.375 48.1875 33.5938 48.1875 Q 44.5781 48.1875 50.9531 41.5156 Q 57.3281 34.8594 57.3281 23.3906 Q 57.3281 12.1563 50.6875 5.35938 Q 44.0469 -1.42188 33.0156 -1.42188 Q 20.3594 -1.42188 13.6719 8.26563 Q 6.98438 17.9688 6.98438 36.375 Q 6.98438 53.6563 15.1875 63.9375 Q 23.3906 74.2188 37.2031 74.2188 Q 40.9219 74.2188 44.7031 73.4844 Q 48.4844 72.75 52.5938 71.2969 Z" />
      </defs>
      <g transform="translate(368.522 242.738) scale(0.1, -0.1)">
       <use xlink:href="#DejaVuSans-54" />
       <use x="63.623" xlink:href="#DejaVuSans-48" />
      </g>
     </g>
    </g>
    <g id="text_8">
     <!-- Эпоха обучения -->
     <defs>
      <path id="DejaVuSans-1069" d="M 5.42188 15.9219 Q 15.7188 6.6875 28.2188 6.6875 Q 41.1094 6.6875 46.9219 13.625 Q 52.7344 20.5625 53.8125 32.2344 L 14.8438 32.2344 L 14.8438 40.5313 L 53.8125 40.5313 Q 52.7344 52.2031 46.9219 59.1563 Q 41.1094 66.1094 28.2188 66.1094 Q 15.7188 66.1094 5.42188 56.8906 L 5.42188 67.2813 Q 15.5781 74.2188 28.8125 74.2188 Q 45.1719 74.2188 54.6875 64.0781 Q 64.2031 53.9531 64.2031 36.4219 Q 64.2031 18.8438 54.6875 8.70313 Q 45.1719 -1.42188 28.8125 -1.42188 Q 15.7656 -1.42188 5.42188 5.60938 Z" />
      <path id="DejaVuSans-1087" d="M 56.2969 54.6875 L 56.2969 0 L 47.2656 0 L 47.2656 47.5156 L 18.1094 47.5156 L 18.1094 0 L 9.07813 0 L 9.07813 54.6875 Z" />
      <path id="DejaVuSans-1086" d="M 30.6094 48.3906 Q 23.3906 48.3906 19.1875 42.75 Q 14.9844 37.1094 14.9844 27.2969 Q 14.9844 17.4844 19.1563 11.8438 Q 23.3438 6.20313 30.6094 6.20313 Q 37.7969 6.20313 41.9844 11.8594 Q 46.1875 17.5313 46.1875 27.2969 Q 46.1875 37.0156 41.9844 42.7031 Q 37.7969 48.3906 30.6094 48.3906 Z M 30.6094 56 Q 42.3281 56 49.0156 48.375 Q 55.7188 40.7656 55.7188 27.2969 Q 55.7188 13.875 49.0156 6.21875 Q 42.3281 -1.42188 30.6094 -1.42188 Q 18.8438 -1.42188 12.1719 6.21875 Q 5.51563 13.875 5.51563 27.2969 Q 5.51563 40.7656 12.1719 48.375 Q 18.8438 56 30.6094 56 Z" />
      <path id="DejaVuSans-1093" d="M 54.8906 54.6875 L 35.1094 28.0781 L 55.9063 0 L 45.3125 0 L 29.3906 21.4844 L 13.4844 0 L 2.875 0 L 24.125 28.6094 L 4.6875 54.6875 L 15.2813 54.6875 L 29.7813 35.2031 L 44.2813 54.6875 Z" />
      <path id="DejaVuSans-1072" d="M 34.2813 27.4844 Q 23.3906 27.4844 19.1875 25 Q 14.9844 22.5156 14.9844 16.5 Q 14.9844 11.7188 18.1406 8.90625 Q 21.2969 6.10938 26.7031 6.10938 Q 34.1875 6.10938 38.7031 11.4063 Q 43.2188 16.7031 43.2188 25.4844 L 43.2188 27.4844 Z M 52.2031 31.2031 L 52.2031 0 L 43.2188 0 L 43.2188 8.29688 Q 40.1406 3.32813 35.5469 0.953125 Q 30.9531 -1.42188 24.3125 -1.42188 Q 15.9219 -1.42188 10.9531 3.29688 Q 6 8.01563 6 15.9219 Q 6 25.1406 12.1719 29.8281 Q 18.3594 34.5156 30.6094 34.5156 L 43.2188 34.5156 L 43.2188 35.4063 Q 43.2188 41.6094 39.1406 45 Q 35.0625 48.3906 27.6875 48.3906 Q 23 48.3906 18.5469 47.2656 Q 14.1094 46.1406 10.0156 43.8906 L 10.0156 52.2031 Q 14.9375 54.1094 19.5781 55.0469 Q 24.2188 56 28.6094 56 Q 40.4844 56 46.3438 49.8438 Q 52.2031 43.7031 52.2031 31.2031 Z" />
      <path id="DejaVuSans-32" />
      <path id="DejaVuSans-1073" d="M 31.1094 56 Q 42.8281 56 49.5156 48.375 Q 56.2031 40.7656 56.2031 27.2969 Q 56.2031 13.875 49.5156 6.21875 Q 42.8281 -1.42188 31.1094 -1.42188 Q 19.3438 -1.42188 12.8438 6 Q 6.34375 13.4219 6 27.2969 L 5.71875 38.4844 Q 5.46875 44.2813 5.46875 46.2969 Q 5.46875 54.1094 8.29688 59.8594 Q 12.75 68.8906 20.4375 72.7969 Q 28.125 76.7031 41.0156 76.8125 Q 46.9688 76.8594 49.6094 77.6875 L 52.0938 70.5625 Q 49.7031 69.5781 47.5156 69.5313 L 35.2969 68.7031 Q 29.1563 68.2656 25.4375 66.1094 Q 15.7188 60.4063 14.7969 52.9375 L 14.4531 50.2031 Q 20.7969 56 31.1094 56 Z M 31.1094 48.3906 Q 23.875 48.3906 19.6719 42.75 Q 15.4844 37.1094 15.4844 27.2969 Q 15.4844 17.4844 19.6563 11.8438 Q 23.8281 6.20313 31.1094 6.20313 Q 38.2813 6.20313 42.4844 11.8594 Q 46.6875 17.5313 46.6875 27.2969 Q 46.6875 37.0156 42.4844 42.7031 Q 38.2813 48.3906 31.1094 48.3906 Z" />
      <path id="DejaVuSans-1091" d="M 32.1719 -5.07813 Q 28.375 -14.8438 24.75 -17.8125 Q 21.1406 -20.7969 15.0938 -20.7969 L 7.90625 -20.7969 L 7.90625 -13.2813 L 13.1875 -13.2813 Q 16.8906 -13.2813 18.9375 -11.5156 Q 21 -9.76563 23.4844 -3.21875 L 25.0938 0.875 L 2.98438 54.6875 L 12.5 54.6875 L 29.5938 11.9219 L 46.6875 54.6875 L 56.2031 54.6875 Z" />
      <path id="DejaVuSans-1095" d="M 41.0156 0 L 41.0156 23 L 24.2656 23 Q 16.7969 23 11.8125 27.6406 Q 7.32813 31.8438 7.32813 40.8281 L 7.32813 54.6875 L 16.3125 54.6875 L 16.3125 41.6563 Q 16.3125 35.9375 18.8438 33.0625 Q 21.4375 30.1719 26.5156 30.1719 L 41.0156 30.1719 L 41.0156 54.6875 L 50 54.6875 L 50 0 Z" />
      <path id="DejaVuSans-1077" d="M 56.2031 29.5938 L 56.2031 25.2031 L 14.8906 25.2031 Q 15.4844 15.9219 20.4844 11.0625 Q 25.4844 6.20313 34.4219 6.20313 Q 39.5938 6.20313 44.4531 7.46875 Q 49.3125 8.73438 54.1094 11.2813 L 54.1094 2.78125 Q 49.2656 0.734375 44.1875 -0.34375 Q 39.1094 -1.42188 33.8906 -1.42188 Q 20.7969 -1.42188 13.1563 6.1875 Q 5.51563 13.8125 5.51563 26.8125 Q 5.51563 40.2344 12.7656 48.1094 Q 20.0156 56 32.3281 56 Q 43.3594 56 49.7813 48.8906 Q 56.2031 41.7969 56.2031 29.5938 Z M 47.2188 32.2344 Q 47.125 39.5938 43.0938 43.9844 Q 39.0625 48.3906 32.4219 48.3906 Q 24.9063 48.3906 20.3906 44.1406 Q 15.875 39.8906 15.1875 32.1719 Z" />
      <path id="DejaVuSans-1085" d="M 9.07813 54.6875 L 18.1094 54.6875 L 18.1094 32.375 L 47.2656 32.375 L 47.2656 54.6875 L 56.2969 54.6875 L 56.2969 0 L 47.2656 0 L 47.2656 25.2031 L 18.1094 25.2031 L 18.1094 0 L 9.07813 0 Z" />
      <path id="DejaVuSans-1080" d="M 55.9063 54.6875 L 55.9063 0 L 46.9688 0 L 46.9688 43.8906 L 20.6094 0 L 9.07813 0 L 9.07813 54.6875 L 18.0156 54.6875 L 18.0156 10.8906 L 44.3438 54.6875 Z" />
      <path id="DejaVuSans-1103" d="M 18.4531 38.9219 Q 18.4531 34.8594 21.5781 32.5625 Q 24.7031 30.2813 30.5156 30.2813 L 42.625 30.2813 L 42.625 47.5156 L 30.5156 47.5156 Q 24.7031 47.5156 21.5781 45.2656 Q 18.4531 43.0156 18.4531 38.9219 Z M 5.67188 0 L 22.3594 23.9688 Q 16.7031 25.25 12.9375 28.5938 Q 9.1875 31.9375 9.1875 38.9219 Q 9.1875 46.8281 14.4219 50.75 Q 19.6719 54.6875 30.2813 54.6875 L 51.6563 54.6875 L 51.6563 0 L 42.625 0 L 42.625 23.0938 L 31.4531 23.0938 L 15.3281 0 Z" />
     </defs>
     <g transform="translate(175.453 256.587) scale(0.1, -0.1)">
      <use xlink:href="#DejaVuSans-1069" />
      <use x="69.8242" xlink:href="#DejaVuSans-1087" />
      <use x="135.205" xlink:href="#DejaVuSans-1086" />
      <use x="196.387" xlink:href="#DejaVuSans-1093" />
      <use x="255.566" xlink:href="#DejaVuSans-1072" />
      <use x="316.846" xlink:href="#DejaVuSans-32" />
      <use x="348.633" xlink:href="#DejaVuSans-1086" />
      <use x="409.814" xlink:href="#DejaVuSans-1073" />
      <use x="471.484" xlink:href="#DejaVuSans-1091" />
      <use x="530.664" xlink:href="#DejaVuSans-1095" />
      <use x="589.746" xlink:href="#DejaVuSans-1077" />
      <use x="651.27" xlink:href="#DejaVuSans-1085" />
      <use x="716.65" xlink:href="#DejaVuSans-1080" />
      <use x="781.641" xlink:href="#DejaVuSans-1103" />
     </g>
    </g>
   </g>
   <g id="matplotlib.axis_2">
    <g id="ytick_1">
     <g id="line2d_8">
      <defs>
       <path id="m64e9626e70" style="stroke:#000000;stroke-width:0.8;" d="M 0 0 L -3.5 0" />
      </defs>
      <g>
       <use style="stroke:#000000;stroke-width:0.8;" x="50.1437" y="227.114" xlink:href="#m64e9626e70" />
      </g>
     </g>
     <g id="text_9">
      <!-- 0.75 -->
      <defs>
       <path id="DejaVuSans-46" d="M 10.6875 12.4063 L 21 12.4063 L 21 0 L 10.6875 0 Z" />
       <path id="DejaVuSans-55" d="M 8.20313 72.9063 L 55.0781 72.9063 L 55.0781 68.7031 L 28.6094 0 L 18.3125 0 L 43.2188 64.5938 L 8.20313 64.5938 Z" />
      </defs>
      <g transform="translate(20.8781 230.914) scale(0.1, -0.1)">
       <use xlink:href="#DejaVuSans-48" />
       <use x="63.623" xlink:href="#DejaVuSans-46" />
       <use x="95.4102" xlink:href="#DejaVuSans-55" />
       <use x="159.033" xlink:href="#DejaVuSans-53" />
      </g>
     </g>
    </g>
    <g id="ytick_2">
     <g id="line2d_9">
      <g>
       <use style="stroke:#000000;stroke-width:0.8;" x="50.1437" y="183.393" xlink:href="#m64e9626e70" />
      </g>
     </g>
     <g id="text_10">
      <!-- 0.80 -->
      <defs>
       <path id="DejaVuSans-56" d="M 31.7813 34.625 Q 24.75 34.625 20.7188 30.8594 Q 16.7031 27.0938 16.7031 20.5156 Q 16.7031 13.9219 20.7188 10.1563 Q 24.75 6.39063 31.7813 6.39063 Q 38.8125 6.39063 42.8594 10.1719 Q 46.9219 13.9688 46.9219 20.5156 Q 46.9219 27.0938 42.8906 30.8594 Q 38.875 34.625 31.7813 34.625 Z M 21.9219 38.8125 Q 15.5781 40.375 12.0313 44.7188 Q 8.5 49.0781 8.5 55.3281 Q 8.5 64.0625 14.7188 69.1406 Q 20.9531 74.2188 31.7813 74.2188 Q 42.6719 74.2188 48.875 69.1406 Q 55.0781 64.0625 55.0781 55.3281 Q 55.0781 49.0781 51.5313 44.7188 Q 48 40.375 41.7031 38.8125 Q 48.8281 37.1563 52.7969 32.3125 Q 56.7813 27.4844 56.7813 20.5156 Q 56.7813 9.90625 50.3125 4.23438 Q 43.8438 -1.42188 31.7813 -1.42188 Q 19.7344 -1.42188 13.25 4.23438 Q 6.78125 9.90625 6.78125 20.5156 Q 6.78125 27.4844 10.7813 32.3125 Q 14.7969 37.1563 21.9219 38.8125 Z M 18.3125 54.3906 Q 18.3125 48.7344 21.8438 45.5625 Q 25.3906 42.3906 31.7813 42.3906 Q 38.1406 42.3906 41.7188 45.5625 Q 45.3125 48.7344 45.3125 54.3906 Q 45.3125 60.0625 41.7188 63.2344 Q 38.1406 66.4063 31.7813 66.4063 Q 25.3906 66.4063 21.8438 63.2344 Q 18.3125 60.0625 18.3125 54.3906 Z" />
      </defs>
      <g transform="translate(20.8781 187.192) scale(0.1, -0.1)">
       <use xlink:href="#DejaVuSans-48" />
       <use x="63.623" xlink:href="#DejaVuSans-46" />
       <use x="95.4102" xlink:href="#DejaVuSans-56" />
       <use x="159.033" xlink:href="#DejaVuSans-48" />
      </g>
     </g>
    </g>
    <g id="ytick_3">
     <g id="line2d_10">
      <g>
       <use style="stroke:#000000;stroke-width:0.8;" x="50.1437" y="139.672" xlink:href="#m64e9626e70" />
      </g>
     </g>
     <g id="text_11">
      <!-- 0.85 -->
      <g transform="translate(20.8781 143.471) scale(0.1, -0.1)">
       <use xlink:href="#DejaVuSans-48" />
       <use x="63.623" xlink:href="#DejaVuSans-46" />
       <use x="95.4102" xlink:href="#DejaVuSans-56" />
       <use x="159.033" xlink:href="#DejaVuSans-53" />
      </g>
     </g>
    </g>
    <g id="ytick_4">
     <g id="line2d_11">
      <g>
       <use style="stroke:#000000;stroke-width:0.8;" x="50.1437" y="95.9502" xlink:href="#m64e9626e70" />
      </g>
     </g>
     <g id="text_12">
      <!-- 0.90 -->
      <defs>
       <path id="DejaVuSans-57" d="M 10.9844 1.51563 L 10.9844 10.5 Q 14.7031 8.73438 18.5 7.8125 Q 22.3125 6.89063 25.9844 6.89063 Q 35.75 6.89063 40.8906 13.4531 Q 46.0469 20.0156 46.7813 33.4063 Q 43.9531 29.2031 39.5938 26.9531 Q 35.25 24.7031 29.9844 24.7031 Q 19.0469 24.7031 12.6719 31.3125 Q 6.29688 37.9375 6.29688 49.4219 Q 6.29688 60.6406 12.9375 67.4219 Q 19.5781 74.2188 30.6094 74.2188 Q 43.2656 74.2188 49.9219 64.5156 Q 56.5938 54.8281 56.5938 36.375 Q 56.5938 19.1406 48.4063 8.85938 Q 40.2344 -1.42188 26.4219 -1.42188 Q 22.7031 -1.42188 18.8906 -0.6875 Q 15.0938 0.046875 10.9844 1.51563 Z M 30.6094 32.4219 Q 37.25 32.4219 41.125 36.9531 Q 45.0156 41.5 45.0156 49.4219 Q 45.0156 57.2813 41.125 61.8438 Q 37.25 66.4063 30.6094 66.4063 Q 23.9688 66.4063 20.0938 61.8438 Q 16.2188 57.2813 16.2188 49.4219 Q 16.2188 41.5 20.0938 36.9531 Q 23.9688 32.4219 30.6094 32.4219 Z" />
      </defs>
      <g transform="translate(20.8781 99.7494) scale(0.1, -0.1)">
       <use xlink:href="#DejaVuSans-48" />
       <use x="63.623" xlink:href="#DejaVuSans-46" />
       <use x="95.4102" xlink:href="#DejaVuSans-57" />
       <use x="159.033" xlink:href="#DejaVuSans-48" />
      </g>
     </g>
    </g>
    <g id="ytick_5">
     <g id="line2d_12">
      <g>
       <use style="stroke:#000000;stroke-width:0.8;" x="50.1437" y="52.2288" xlink:href="#m64e9626e70" />
      </g>
     </g>
     <g id="text_13">
      <!-- 0.95 -->
      <g transform="translate(20.8781 56.028) scale(0.1, -0.1)">
       <use xlink:href="#DejaVuSans-48" />
       <use x="63.623" xlink:href="#DejaVuSans-46" />
       <use x="95.4102" xlink:href="#DejaVuSans-57" />
       <use x="159.033" xlink:href="#DejaVuSans-53" />
      </g>
     </g>
    </g>
    <g id="text_14">
     <!-- Accuracy -->
     <defs>
      <path id="DejaVuSans-65" d="M 34.1875 63.1875 L 20.7969 26.9063 L 47.6094 26.9063 Z M 28.6094 72.9063 L 39.7969 72.9063 L 67.5781 0 L 57.3281 0 L 50.6875 18.7031 L 17.8281 18.7031 L 11.1875 0 L 0.78125 0 Z" />
      <path id="DejaVuSans-99" d="M 48.7813 52.5938 L 48.7813 44.1875 Q 44.9688 46.2969 41.1406 47.3438 Q 37.3125 48.3906 33.4063 48.3906 Q 24.6563 48.3906 19.8125 42.8438 Q 14.9844 37.3125 14.9844 27.2969 Q 14.9844 17.2813 19.8125 11.7344 Q 24.6563 6.20313 33.4063 6.20313 Q 37.3125 6.20313 41.1406 7.25 Q 44.9688 8.29688 48.7813 10.4063 L 48.7813 2.09375 Q 45.0156 0.34375 40.9844 -0.53125 Q 36.9688 -1.42188 32.4219 -1.42188 Q 20.0625 -1.42188 12.7813 6.34375 Q 5.51563 14.1094 5.51563 27.2969 Q 5.51563 40.6719 12.8594 48.3281 Q 20.2188 56 33.0156 56 Q 37.1563 56 41.1094 55.1406 Q 45.0625 54.2969 48.7813 52.5938 Z" />
      <path id="DejaVuSans-117" d="M 8.5 21.5781 L 8.5 54.6875 L 17.4844 54.6875 L 17.4844 21.9219 Q 17.4844 14.1563 20.5 10.2656 Q 23.5313 6.39063 29.5938 6.39063 Q 36.8594 6.39063 41.0781 11.0313 Q 45.3125 15.6719 45.3125 23.6875 L 45.3125 54.6875 L 54.2969 54.6875 L 54.2969 0 L 45.3125 0 L 45.3125 8.40625 Q 42.0469 3.42188 37.7188 1 Q 33.4063 -1.42188 27.6875 -1.42188 Q 18.2656 -1.42188 13.375 4.4375 Q 8.5 10.2969 8.5 21.5781 Z M 31.1094 56 Z" />
      <path id="DejaVuSans-114" d="M 41.1094 46.2969 Q 39.5938 47.1719 37.8125 47.5781 Q 36.0313 48 33.8906 48 Q 26.2656 48 22.1875 43.0469 Q 18.1094 38.0938 18.1094 28.8125 L 18.1094 0 L 9.07813 0 L 9.07813 54.6875 L 18.1094 54.6875 L 18.1094 46.1875 Q 20.9531 51.1719 25.4844 53.5781 Q 30.0313 56 36.5313 56 Q 37.4531 56 38.5781 55.875 Q 39.7031 55.7656 41.0625 55.5156 Z" />
      <path id="DejaVuSans-97" d="M 34.2813 27.4844 Q 23.3906 27.4844 19.1875 25 Q 14.9844 22.5156 14.9844 16.5 Q 14.9844 11.7188 18.1406 8.90625 Q 21.2969 6.10938 26.7031 6.10938 Q 34.1875 6.10938 38.7031 11.4063 Q 43.2188 16.7031 43.2188 25.4844 L 43.2188 27.4844 Z M 52.2031 31.2031 L 52.2031 0 L 43.2188 0 L 43.2188 8.29688 Q 40.1406 3.32813 35.5469 0.953125 Q 30.9531 -1.42188 24.3125 -1.42188 Q 15.9219 -1.42188 10.9531 3.29688 Q 6 8.01563 6 15.9219 Q 6 25.1406 12.1719 29.8281 Q 18.3594 34.5156 30.6094 34.5156 L 43.2188 34.5156 L 43.2188 35.4063 Q 43.2188 41.6094 39.1406 45 Q 35.0625 48.3906 27.6875 48.3906 Q 23 48.3906 18.5469 47.2656 Q 14.1094 46.1406 10.0156 43.8906 L 10.0156 52.2031 Q 14.9375 54.1094 19.5781 55.0469 Q 24.2188 56 28.6094 56 Q 40.4844 56 46.3438 49.8438 Q 52.2031 43.7031 52.2031 31.2031 Z" />
      <path id="DejaVuSans-121" d="M 32.1719 -5.07813 Q 28.375 -14.8438 24.75 -17.8125 Q 21.1406 -20.7969 15.0938 -20.7969 L 7.90625 -20.7969 L 7.90625 -13.2813 L 13.1875 -13.2813 Q 16.8906 -13.2813 18.9375 -11.5156 Q 21 -9.76563 23.4844 -3.21875 L 25.0938 0.875 L 2.98438 54.6875 L 12.5 54.6875 L 29.5938 11.9219 L 46.6875 54.6875 L 56.2031 54.6875 Z" />
     </defs>
     <g transform="translate(14.7984 142.335) rotate(-90) scale(0.1, -0.1)">
      <use xlink:href="#DejaVuSans-65" />
      <use x="68.3926" xlink:href="#DejaVuSans-99" />
      <use x="123.373" xlink:href="#DejaVuSans-99" />
      <use x="178.354" xlink:href="#DejaVuSans-117" />
      <use x="241.732" xlink:href="#DejaVuSans-114" />
      <use x="282.846" xlink:href="#DejaVuSans-97" />
      <use x="344.125" xlink:href="#DejaVuSans-99" />
      <use x="399.105" xlink:href="#DejaVuSans-121" />
     </g>
    </g>
   </g>
   <g id="line2d_13">
    <path style="fill:none;stroke:#1f77b4;stroke-linecap:square;stroke-width:1.5;" clip-path="url(&quot;#p242236ff1f&quot;)" d="M 65.3619 218.256 L 70.5206 196.432 L 75.6793 183.855 L 80.8381 166.889 L 85.9968 158.156 L 91.1555 148.142 L 96.3142 141.706 L 101.473 136.597 L 106.632 132.16 L 111.79 128.77 L 116.949 122.459 L 122.108 118.069 L 127.266 111.741 L 132.425 106.211 L 137.584 103.055 L 142.743 95.3534 L 147.901 91.9633 L 153.06 82.6053 L 158.219 81.0743 L 163.377 72.5913 L 168.536 69.4355 L 173.695 64.6706 L 178.853 63.1083 L 184.012 59.2339 L 189.171 60.6244 L 194.33 54.4847 L 199.488 49.3761 L 204.647 46.7984 L 209.806 47.8294 L 214.964 44.7206 L 220.123 42.6896 L 225.282 36.8468 L 230.441 41.268 L 235.599 37.831 L 240.758 37.0186 L 245.917 31.4726 L 251.075 33.4879 L 256.234 34.2534 L 261.393 30.9414 L 266.551 33.8628 L 271.71 26.0672 L 276.869 31.9413 L 282.028 29.9572 L 287.186 28.848 L 292.345 27.2389 L 297.504 28.0512 L 302.662 28.5512 L 307.821 23.6457 L 312.98 26.2703 L 318.139 24.3799 L 323.297 28.3168 L 328.456 25.8953 L 333.615 23.3332 L 338.773 24.7392 L 343.932 21.974 L 349.091 26.2234 L 354.249 20.5836 L 359.408 26.5202 L 364.567 24.2393 L 369.726 22.7083" />
   </g>
   <g id="patch_3">
    <path style="fill:none;stroke:#000000;stroke-linecap:square;stroke-linejoin:miter;stroke-width:0.8;" d="M 50.1437 228.14 L 50.1437 10.7" />
   </g>
   <g id="patch_4">
    <path style="fill:none;stroke:#000000;stroke-linecap:square;stroke-linejoin:miter;stroke-width:0.8;" d="M 384.944 228.14 L 384.944 10.7" />
   </g>
   <g id="patch_5">
    <path style="fill:none;stroke:#000000;stroke-linecap:square;stroke-linejoin:miter;stroke-width:0.8;" d="M 50.1437 228.14 L 384.944 228.14" />
   </g>
   <g id="patch_6">
    <path style="fill:none;stroke:#000000;stroke-linecap:square;stroke-linejoin:miter;stroke-width:0.8;" d="M 50.1437 10.7 L 384.944 10.7" />
   </g>
   <g id="legend_1">
    <g id="patch_7">
     <path style="fill:#ffffff;opacity:0.8;stroke:#cccccc;stroke-linejoin:miter;" d="M 57.1437 33.3781 L 202.417 33.3781 Q 204.417 33.3781 204.417 31.3781 L 204.417 17.7 Q 204.417 15.7 202.417 15.7 L 57.1437 15.7 Q 55.1437 15.7 55.1437 17.7 L 55.1437 31.3781 Q 55.1437 33.3781 57.1437 33.3781 Z" />
    </g>
    <g id="line2d_14">
     <path style="fill:none;stroke:#1f77b4;stroke-linecap:square;stroke-width:1.5;" d="M 59.1437 23.7984 L 79.1438 23.7984" />
    </g>
    <g id="line2d_15" />
    <g id="text_15">
     <!-- Train sample accuracy -->
     <defs>
      <path id="DejaVuSans-84" d="M -0.296875 72.9063 L 61.375 72.9063 L 61.375 64.5938 L 35.5 64.5938 L 35.5 0 L 25.5938 0 L 25.5938 64.5938 L -0.296875 64.5938 Z" />
      <path id="DejaVuSans-105" d="M 9.42188 54.6875 L 18.4063 54.6875 L 18.4063 0 L 9.42188 0 Z M 9.42188 75.9844 L 18.4063 75.9844 L 18.4063 64.5938 L 9.42188 64.5938 Z" />
      <path id="DejaVuSans-110" d="M 54.8906 33.0156 L 54.8906 0 L 45.9063 0 L 45.9063 32.7188 Q 45.9063 40.4844 42.875 44.3281 Q 39.8438 48.1875 33.7969 48.1875 Q 26.5156 48.1875 22.3125 43.5469 Q 18.1094 38.9219 18.1094 30.9063 L 18.1094 0 L 9.07813 0 L 9.07813 54.6875 L 18.1094 54.6875 L 18.1094 46.1875 Q 21.3438 51.125 25.7031 53.5625 Q 30.0781 56 35.7969 56 Q 45.2188 56 50.0469 50.1719 Q 54.8906 44.3438 54.8906 33.0156 Z" />
      <path id="DejaVuSans-115" d="M 44.2813 53.0781 L 44.2813 44.5781 Q 40.4844 46.5313 36.375 47.5 Q 32.2813 48.4844 27.875 48.4844 Q 21.1875 48.4844 17.8438 46.4375 Q 14.5 44.3906 14.5 40.2813 Q 14.5 37.1563 16.8906 35.375 Q 19.2813 33.5938 26.5156 31.9844 L 29.5938 31.2969 Q 39.1563 29.25 43.1875 25.5156 Q 47.2188 21.7813 47.2188 15.0938 Q 47.2188 7.46875 41.1875 3.01563 Q 35.1563 -1.42188 24.6094 -1.42188 Q 20.2188 -1.42188 15.4531 -0.5625 Q 10.6875 0.296875 5.42188 2 L 5.42188 11.2813 Q 10.4063 8.6875 15.2344 7.39063 Q 20.0625 6.10938 24.8125 6.10938 Q 31.1563 6.10938 34.5625 8.28125 Q 37.9844 10.4531 37.9844 14.4063 Q 37.9844 18.0625 35.5156 20.0156 Q 33.0625 21.9688 24.7031 23.7813 L 21.5781 24.5156 Q 13.2344 26.2656 9.51563 29.9063 Q 5.8125 33.5469 5.8125 39.8906 Q 5.8125 47.6094 11.2813 51.7969 Q 16.75 56 26.8125 56 Q 31.7813 56 36.1719 55.2656 Q 40.5781 54.5469 44.2813 53.0781 Z" />
      <path id="DejaVuSans-109" d="M 52 44.1875 Q 55.375 50.25 60.0625 53.125 Q 64.75 56 71.0938 56 Q 79.6406 56 84.2813 50.0156 Q 88.9219 44.0469 88.9219 33.0156 L 88.9219 0 L 79.8906 0 L 79.8906 32.7188 Q 79.8906 40.5781 77.0938 44.375 Q 74.3125 48.1875 68.6094 48.1875 Q 61.625 48.1875 57.5625 43.5469 Q 53.5156 38.9219 53.5156 30.9063 L 53.5156 0 L 44.4844 0 L 44.4844 32.7188 Q 44.4844 40.625 41.7031 44.4063 Q 38.9219 48.1875 33.1094 48.1875 Q 26.2188 48.1875 22.1563 43.5313 Q 18.1094 38.875 18.1094 30.9063 L 18.1094 0 L 9.07813 0 L 9.07813 54.6875 L 18.1094 54.6875 L 18.1094 46.1875 Q 21.1875 51.2188 25.4844 53.6094 Q 29.7813 56 35.6875 56 Q 41.6563 56 45.8281 52.9688 Q 50 49.9531 52 44.1875 Z" />
      <path id="DejaVuSans-112" d="M 18.1094 8.20313 L 18.1094 -20.7969 L 9.07813 -20.7969 L 9.07813 54.6875 L 18.1094 54.6875 L 18.1094 46.3906 Q 20.9531 51.2656 25.2656 53.625 Q 29.5938 56 35.5938 56 Q 45.5625 56 51.7813 48.0938 Q 58.0156 40.1875 58.0156 27.2969 Q 58.0156 14.4063 51.7813 6.48438 Q 45.5625 -1.42188 35.5938 -1.42188 Q 29.5938 -1.42188 25.2656 0.953125 Q 20.9531 3.32813 18.1094 8.20313 Z M 48.6875 27.2969 Q 48.6875 37.2031 44.6094 42.8438 Q 40.5313 48.4844 33.4063 48.4844 Q 26.2656 48.4844 22.1875 42.8438 Q 18.1094 37.2031 18.1094 27.2969 Q 18.1094 17.3906 22.1875 11.75 Q 26.2656 6.10938 33.4063 6.10938 Q 40.5313 6.10938 44.6094 11.75 Q 48.6875 17.3906 48.6875 27.2969 Z" />
      <path id="DejaVuSans-108" d="M 9.42188 75.9844 L 18.4063 75.9844 L 18.4063 0 L 9.42188 0 Z" />
      <path id="DejaVuSans-101" d="M 56.2031 29.5938 L 56.2031 25.2031 L 14.8906 25.2031 Q 15.4844 15.9219 20.4844 11.0625 Q 25.4844 6.20313 34.4219 6.20313 Q 39.5938 6.20313 44.4531 7.46875 Q 49.3125 8.73438 54.1094 11.2813 L 54.1094 2.78125 Q 49.2656 0.734375 44.1875 -0.34375 Q 39.1094 -1.42188 33.8906 -1.42188 Q 20.7969 -1.42188 13.1563 6.1875 Q 5.51563 13.8125 5.51563 26.8125 Q 5.51563 40.2344 12.7656 48.1094 Q 20.0156 56 32.3281 56 Q 43.3594 56 49.7813 48.8906 Q 56.2031 41.7969 56.2031 29.5938 Z M 47.2188 32.2344 Q 47.125 39.5938 43.0938 43.9844 Q 39.0625 48.3906 32.4219 48.3906 Q 24.9063 48.3906 20.3906 44.1406 Q 15.875 39.8906 15.1875 32.1719 Z" />
     </defs>
     <g transform="translate(87.1438 27.2984) scale(0.1, -0.1)">
      <use xlink:href="#DejaVuSans-84" />
      <use x="60.8652" xlink:href="#DejaVuSans-114" />
      <use x="101.979" xlink:href="#DejaVuSans-97" />
      <use x="163.258" xlink:href="#DejaVuSans-105" />
      <use x="191.041" xlink:href="#DejaVuSans-110" />
      <use x="254.42" xlink:href="#DejaVuSans-32" />
      <use x="286.207" xlink:href="#DejaVuSans-115" />
      <use x="338.307" xlink:href="#DejaVuSans-97" />
      <use x="399.586" xlink:href="#DejaVuSans-109" />
      <use x="496.998" xlink:href="#DejaVuSans-112" />
      <use x="560.475" xlink:href="#DejaVuSans-108" />
      <use x="588.258" xlink:href="#DejaVuSans-101" />
      <use x="649.781" xlink:href="#DejaVuSans-32" />
      <use x="681.568" xlink:href="#DejaVuSans-97" />
      <use x="742.848" xlink:href="#DejaVuSans-99" />
      <use x="797.828" xlink:href="#DejaVuSans-99" />
      <use x="852.809" xlink:href="#DejaVuSans-117" />
      <use x="916.188" xlink:href="#DejaVuSans-114" />
      <use x="957.301" xlink:href="#DejaVuSans-97" />
      <use x="1018.58" xlink:href="#DejaVuSans-99" />
      <use x="1073.56" xlink:href="#DejaVuSans-121" />
     </g>
    </g>
   </g>
  </g>
 </g>
 <defs>
  <clipPath id="p242236ff1f">
   <rect x="50.1437" y="10.7" width="334.8" height="217.44" />
  </clipPath>
 </defs>
</svg>